<?xml version="1.0" encoding="utf-8"?>
<svg viewBox="0 0 134.59 55.441" fill="none" xmlns="http://www.w3.org/2000/svg">
  <defs>
    <linearGradient id="paint0_linear" x1="24" y1="76" x2="26" y2="19.5" gradientUnits="userSpaceOnUse">
      <stop stop-color="#F231A5"/>
      <stop offset="1" stop-color="#FF66C2"/>
    </linearGradient>
  </defs>
  <path d="M2.08 12.75L23.36 1.08a4 4 0 013.91.03L48 12.96A4 4 0 0150 16.43v23.54a4 4 0 01-2.06 3.5l-20.7 11.47a4 4 0 01-3.84.02L2.1 43.46A4 4 0 010 39.94V16.26a4 4 0 012.08-3.5z" fill="url(#paint0_linear)" transform="matrix(0.9999999999999999, 0, 0, 0.9999999999999999, -3.552713678800501e-15, 0)"/>
  <ellipse rx="7.65" ry="18.78" transform="matrix(-0.49197000265121454, 0.8706099987030028, 0.8678000569343566, 0.49693003296852106, 24.999999999999993, 27.899999618530273)" stroke="#fff" stroke-width="1.5"/>
  <ellipse rx="7.65" ry="18.78" transform="matrix(-0.49197000265121454, -0.8706099987030028, 0.8678000569343566, -0.49693003296852106, 24.999999999999993, 27.799999237060547)" stroke="#fff" stroke-width="1.5"/>
  <ellipse cx="25.07" cy="27.85" rx="7.61" ry="18.87" transform="matrix(-0.9999999999999999, 0, 0, -0.9999999999999999, 50.13999938964843, 55.70000076293945)" stroke="#fff" stroke-width="1.5"/>
  <ellipse cx="25.01" cy="27.73" rx="3.06" ry="3.04" transform="matrix(0, -0.9999999999999999, 0.9999999999999999, 0, -2.729999542236328, 52.72999954223633)" fill="#fff"/>
  <path d="M 74.06 18.4 C 76.86 18.4 78.99 18.91 80.46 19.94 C 81.96 20.97 82.71 22.54 82.71 24.64 C 82.71 27.28 81.41 29.06 78.81 29.99 C 80.277 31.81 81.588 33.75 82.73 35.79 C 83.17 36.53 83.55 37.27 83.89 38 L 79.94 38 C 79.218 36.622 78.416 35.286 77.54 34 C 77.12 33.34 76.71 32.74 76.3 32.18 C 75.89 31.6 75.5 31.08 75.15 30.64 L 74.48 30.66 L 72.24 30.66 L 72.24 38 L 68.7 38 L 68.7 18.88 C 69.56 18.68 70.47 18.57 71.44 18.51 C 72.305 18.44 73.172 18.404 74.04 18.4 L 74.06 18.4 Z M 74.31 21.45 C 73.56 21.45 72.87 21.48 72.24 21.54 L 72.24 27.81 L 73.78 27.81 C 74.64 27.81 75.39 27.76 76.05 27.67 C 76.7 27.57 77.24 27.41 77.67 27.17 C 78.12 26.92 78.45 26.59 78.67 26.18 C 78.9 25.78 79.01 25.25 79.01 24.62 C 79.01 24.02 78.91 23.52 78.68 23.1 C 78.454 22.687 78.113 22.346 77.7 22.12 C 77.29 21.88 76.8 21.72 76.21 21.62 C 75.63 21.51 75 21.45 74.31 21.45 L 74.31 21.45 Z M 84.38 30.75 C 84.38 29.46 84.57 28.33 84.94 27.36 C 85.34 26.39 85.84 25.59 86.48 24.96 C 87.721 23.704 89.414 22.998 91.18 23 C 93.2 23 94.77 23.62 95.88 24.87 C 97.03 26.12 97.6 27.99 97.6 30.47 L 97.57 31.11 C 97.57 31.34 97.56 31.54 97.54 31.73 L 87.88 31.73 C 87.98 32.9 88.38 33.82 89.11 34.47 C 89.86 35.11 90.93 35.42 92.33 35.42 C 93.653 35.436 94.967 35.199 96.2 34.72 L 96.64 37.5 C 96.04 37.786 95.399 37.975 94.74 38.06 C 93.811 38.267 92.862 38.367 91.91 38.36 C 90.62 38.36 89.51 38.18 88.55 37.8 C 87.658 37.447 86.855 36.901 86.2 36.2 C 85.582 35.504 85.115 34.687 84.83 33.8 C 84.523 32.813 84.371 31.784 84.38 30.75 L 84.38 30.75 Z M 94.21 29.24 C 94.21 28.77 94.14 28.34 94.01 27.92 C 93.88 27.49 93.68 27.12 93.42 26.82 C 93.178 26.507 92.862 26.259 92.5 26.1 C 92.099 25.903 91.656 25.806 91.21 25.82 C 89.844 25.803 88.627 26.679 88.21 27.98 C 88.07 28.38 87.96 28.81 87.91 29.24 L 94.21 29.24 L 94.21 29.24 Z M 105.08 35.62 C 106.13 35.62 106.92 35.56 107.46 35.45 L 107.46 31.7 C 106.813 31.516 106.142 31.432 105.47 31.45 C 105.1 31.45 104.72 31.48 104.32 31.53 C 103.963 31.583 103.616 31.687 103.29 31.84 C 102.99 31.99 102.75 32.2 102.56 32.48 C 102.37 32.75 102.28 33.08 102.28 33.49 C 102.28 34.29 102.53 34.85 103.04 35.17 C 103.668 35.498 104.372 35.653 105.08 35.62 Z M 104.8 22.99 C 105.761 22.965 106.718 23.107 107.63 23.41 C 109.026 23.86 110.086 25.004 110.43 26.43 C 110.63 27.15 110.73 27.93 110.73 28.79 L 110.73 37.66 C 110.21 37.78 109.42 37.91 108.36 38.06 C 107.31 38.22 106.13 38.31 104.8 38.31 C 103.92 38.31 103.12 38.22 102.4 38.06 C 101.725 37.914 101.086 37.635 100.52 37.24 C 100.01 36.859 99.599 36.362 99.32 35.79 C 99.017 35.094 98.87 34.339 98.89 33.58 C 98.89 32.74 99.05 32.03 99.37 31.45 C 99.7 30.87 100.15 30.4 100.71 30.05 C 101.296 29.664 101.951 29.395 102.64 29.26 C 104.23 28.908 105.879 28.928 107.46 29.32 L 107.46 28.76 C 107.46 28.36 107.41 27.99 107.32 27.64 C 107.22 27.29 107.06 26.98 106.82 26.72 C 106.59 26.44 106.28 26.22 105.89 26.07 C 105.431 25.908 104.946 25.833 104.46 25.85 C 103.189 25.849 101.925 26.038 100.71 26.41 L 100.29 23.66 C 101.746 23.204 103.264 22.978 104.79 22.99 L 104.8 22.99 Z M 112.81 30.69 C 112.81 29.61 112.98 28.6 113.31 27.67 C 113.622 26.76 114.112 25.92 114.75 25.2 C 115.38 24.51 116.15 23.97 117.05 23.58 C 117.94 23.18 118.95 22.99 120.07 22.99 C 121.45 22.99 122.75 23.24 123.99 23.75 L 123.26 26.52 C 122.335 26.133 121.343 25.932 120.34 25.93 C 119.02 25.93 118.01 26.35 117.32 27.19 C 116.63 28.01 116.29 29.18 116.29 30.69 C 116.29 32.15 116.61 33.31 117.26 34.16 C 117.92 35 119.02 35.42 120.56 35.42 C 121.644 35.426 122.719 35.229 123.73 34.84 L 124.21 37.64 C 123.83 37.82 123.27 37.99 122.51 38.14 C 121.75 38.29 120.98 38.36 120.18 38.36 C 119.061 38.384 117.948 38.194 116.9 37.8 C 116.027 37.438 115.243 36.892 114.6 36.2 C 114 35.52 113.56 34.7 113.26 33.77 C 112.96 32.82 112.81 31.79 112.81 30.69 L 112.81 30.69 Z M 125.41 19.49 L 128.79 18.93 L 128.79 23.36 L 134 23.36 L 134 26.18 L 128.8 26.18 L 128.8 32.15 C 128.8 33.32 128.98 34.16 129.35 34.67 C 129.73 35.17 130.36 35.42 131.25 35.42 C 131.87 35.42 132.41 35.36 132.88 35.22 C 133.37 35.1 133.75 34.98 134.03 34.86 L 134.59 37.56 C 134.19 37.72 133.69 37.89 133.05 38.06 C 132.41 38.24 131.67 38.34 130.81 38.34 C 129.915 38.365 129.023 38.222 128.18 37.92 C 127.53 37.674 126.957 37.26 126.52 36.72 C 126.096 36.143 125.803 35.481 125.66 34.78 C 125.481 33.925 125.393 33.053 125.4 32.18 L 125.4 19.49 L 125.41 19.49 Z" fill="#000000" transform="matrix(0.9999999999999999, 0, 0, 0.9999999999999999, -3.552713678800501e-15, 0)"/>
</svg>